<svg xmlns="http://www.w3.org/2000/svg" viewBox="0 0 512 512">
  <path fill="#d0d0d0" d="M230.4 324.267h136.533c4.71 0 8.533-3.823 8.533-8.533s-3.823-8.533-8.533-8.533H230.4c-4.71 0-8.533 3.823-8.533 8.533s3.823 8.533 8.533 8.533zM349.867 256h-51.2a8.536 8.536 0 00-8.533 8.533 8.536 8.536 0 008.533 8.533h51.2a8.536 8.536 0 008.533-8.533 8.536 8.536 0 00-8.533-8.533zM128 153.6h85.333a8.536 8.536 0 008.533-8.533 8.536 8.536 0 00-8.533-8.533H128a8.536 8.536 0 00-8.533 8.533A8.536 8.536 0 00128 153.6zM128 273.067h68.267a8.536 8.536 0 008.533-8.533 8.536 8.536 0 00-8.533-8.533H128a8.536 8.536 0 00-8.533 8.533 8.536 8.536 0 008.533 8.533z M469.333 119.467H384c-14.114 0-25.6-11.486-25.6-25.6V51.2a8.536 8.536 0 00-8.533-8.533 8.536 8.536 0 00-8.533 8.533v42.667c0 23.526 19.14 42.667 42.667 42.667h76.8v332.8c0 14.114-11.486 25.6-25.6 25.6H76.8c-14.114 0-25.6-11.486-25.6-25.6V42.667c0-14.114 11.486-25.6 25.6-25.6h269.534L429.167 99.9a8.523 8.523 0 0012.066 0 8.525 8.525 0 000-12.066L355.9 2.5a8.513 8.513 0 00-6.033-2.5H76.8C53.274 0 34.133 19.14 34.133 42.667v426.667C34.133 492.86 53.274 512 76.8 512h358.4c23.526 0 42.667-19.14 42.667-42.667V128c0-4.71-3.823-8.533-8.534-8.533z M128 221.867h153.6a8.536 8.536 0 008.533-8.533 8.536 8.536 0 00-8.533-8.533H128a8.536 8.536 0 00-8.533 8.533 8.536 8.536 0 008.533 8.533zM230.4 273.067h34.133a8.536 8.536 0 008.533-8.533 8.536 8.536 0 00-8.533-8.533H230.4a8.536 8.536 0 00-8.533 8.533 8.536 8.536 0 008.533 8.533zM264.533 426.667h85.333c4.71 0 8.533-3.823 8.533-8.533s-3.823-8.533-8.533-8.533h-85.333c-4.71 0-8.533 3.823-8.533 8.533s3.823 8.533 8.533 8.533zM392.533 366.933A8.536 8.536 0 00384 358.4h-51.2c-4.71 0-8.533 3.823-8.533 8.533s3.823 8.533 8.533 8.533H384c4.71.001 8.533-3.822 8.533-8.533zM384 204.8h-68.267a8.536 8.536 0 00-8.533 8.533 8.536 8.536 0 008.533 8.533H384a8.536 8.536 0 008.533-8.533A8.536 8.536 0 00384 204.8zM128 426.667h102.4c4.71 0 8.533-3.823 8.533-8.533s-3.823-8.533-8.533-8.533H128c-4.71 0-8.533 3.823-8.533 8.533s3.823 8.533 8.533 8.533zM128 375.467h51.2c4.71 0 8.533-3.823 8.533-8.533s-3.823-8.533-8.533-8.533H128c-4.71 0-8.533 3.823-8.533 8.533s3.823 8.533 8.533 8.533zM307.2 366.933a8.536 8.536 0 00-8.533-8.533h-85.333c-4.71 0-8.533 3.823-8.533 8.533s3.823 8.533 8.533 8.533h85.333c4.71.001 8.533-3.822 8.533-8.533zM128 324.267h68.267c4.71 0 8.533-3.823 8.533-8.533s-3.823-8.533-8.533-8.533H128c-4.71 0-8.533 3.823-8.533 8.533s3.823 8.533 8.533 8.533z"/>
</svg>